<svg xmlns="http://www.w3.org/2000/svg" viewBox="0 0 24 16" shape-rendering="crispEdges">
<rect x="13" y="6" width="1" height="1" fill="rgba(255,204,216,1.000)"/>
<rect x="17" y="6" width="1" height="1" fill="rgba(255,204,216,1.000)"/>
<rect x="19" y="6" width="1" height="1" fill="rgba(140,180,235,1.000)"/>
<rect x="20" y="6" width="1" height="1" fill="rgba(140,180,235,1.000)"/>
<rect x="13" y="7" width="1" height="1" fill="rgba(255,172,188,1.000)"/>
<rect x="16" y="7" width="1" height="1" fill="rgba(54,28,22,1.000)"/>
<rect x="17" y="7" width="1" height="1" fill="rgba(238,142,54,1.000)"/>
<rect x="19" y="7" width="1" height="1" fill="rgba(140,180,235,1.000)"/>
<rect x="20" y="7" width="1" height="1" fill="rgba(140,180,235,1.000)"/>
<rect x="9" y="8" width="1" height="1" fill="rgba(255,255,255,1.000)"/>
<rect x="13" y="8" width="1" height="1" fill="rgba(216,128,144,1.000)"/>
<rect x="14" y="8" width="1" height="1" fill="rgba(255,186,92,1.000)"/>
<rect x="15" y="8" width="1" height="1" fill="rgba(255,186,92,1.000)"/>
<rect x="16" y="8" width="1" height="1" fill="rgba(255,186,92,1.000)"/>
<rect x="17" y="8" width="1" height="1" fill="rgba(216,128,144,1.000)"/>
<rect x="18" y="8" width="1" height="1" fill="rgba(176,212,255,1.000)"/>
<rect x="19" y="8" width="1" height="1" fill="rgba(176,212,255,1.000)"/>
<rect x="20" y="8" width="1" height="1" fill="rgba(176,212,255,1.000)"/>
<rect x="5" y="9" width="1" height="1" fill="rgba(54,28,22,1.000)"/>
<rect x="6" y="9" width="1" height="1" fill="rgba(255,186,92,1.000)"/>
<rect x="7" y="9" width="1" height="1" fill="rgba(255,186,92,1.000)"/>
<rect x="8" y="9" width="1" height="1" fill="rgba(255,214,140,1.000)"/>
<rect x="9" y="9" width="1" height="1" fill="rgba(255,186,92,1.000)"/>
<rect x="10" y="9" width="1" height="1" fill="rgba(255,186,92,1.000)"/>
<rect x="11" y="9" width="1" height="1" fill="rgba(255,186,92,1.000)"/>
<rect x="12" y="9" width="1" height="1" fill="rgba(255,186,92,1.000)"/>
<rect x="13" y="9" width="1" height="1" fill="rgba(54,28,22,1.000)"/>
<rect x="14" y="9" width="1" height="1" fill="rgba(54,28,22,1.000)"/>
<rect x="15" y="9" width="1" height="1" fill="rgba(54,28,22,1.000)"/>
<rect x="16" y="9" width="1" height="1" fill="rgba(54,28,22,1.000)"/>
<rect x="17" y="9" width="1" height="1" fill="rgba(54,28,22,1.000)"/>
<rect x="18" y="9" width="1" height="1" fill="rgba(54,28,22,1.000)"/>
<rect x="19" y="9" width="1" height="1" fill="rgba(176,212,255,1.000)"/>
<rect x="1" y="10" width="1" height="1" fill="rgba(54,28,22,1.000)"/>
<rect x="2" y="10" width="1" height="1" fill="rgba(238,142,54,1.000)"/>
<rect x="3" y="10" width="1" height="1" fill="rgba(54,28,22,1.000)"/>
<rect x="4" y="10" width="1" height="1" fill="rgba(255,186,92,1.000)"/>
<rect x="5" y="10" width="1" height="1" fill="rgba(255,186,92,1.000)"/>
<rect x="6" y="10" width="1" height="1" fill="rgba(255,186,92,1.000)"/>
<rect x="7" y="10" width="1" height="1" fill="rgba(255,186,92,1.000)"/>
<rect x="8" y="10" width="1" height="1" fill="rgba(255,186,92,1.000)"/>
<rect x="9" y="10" width="1" height="1" fill="rgba(255,186,92,1.000)"/>
<rect x="10" y="10" width="1" height="1" fill="rgba(255,186,92,1.000)"/>
<rect x="11" y="10" width="1" height="1" fill="rgba(255,186,92,1.000)"/>
<rect x="12" y="10" width="1" height="1" fill="rgba(255,186,92,1.000)"/>
<rect x="13" y="10" width="1" height="1" fill="rgba(255,186,92,1.000)"/>
<rect x="14" y="10" width="1" height="1" fill="rgba(255,186,92,1.000)"/>
<rect x="15" y="10" width="1" height="1" fill="rgba(255,186,92,1.000)"/>
<rect x="16" y="10" width="1" height="1" fill="rgba(255,255,255,1.000)"/>
<rect x="17" y="10" width="1" height="1" fill="rgba(238,142,54,1.000)"/>
<rect x="18" y="10" width="1" height="1" fill="rgba(176,212,255,1.000)"/>
<rect x="19" y="10" width="1" height="1" fill="rgba(176,212,255,1.000)"/>
<rect x="20" y="10" width="1" height="1" fill="rgba(176,212,255,1.000)"/>
<rect x="0" y="11" width="1" height="1" fill="rgba(238,142,54,1.000)"/>
<rect x="1" y="11" width="1" height="1" fill="rgba(238,142,54,1.000)"/>
<rect x="2" y="11" width="1" height="1" fill="rgba(54,28,22,1.000)"/>
<rect x="3" y="11" width="1" height="1" fill="rgba(255,186,92,1.000)"/>
<rect x="4" y="11" width="1" height="1" fill="rgba(255,186,92,1.000)"/>
<rect x="5" y="11" width="1" height="1" fill="rgba(255,186,92,1.000)"/>
<rect x="6" y="11" width="1" height="1" fill="rgba(255,186,92,1.000)"/>
<rect x="7" y="11" width="1" height="1" fill="rgba(54,28,22,1.000)"/>
<rect x="8" y="11" width="1" height="1" fill="rgba(255,255,255,1.000)"/>
<rect x="9" y="11" width="1" height="1" fill="rgba(255,255,255,1.000)"/>
<rect x="10" y="11" width="1" height="1" fill="rgba(255,255,255,1.000)"/>
<rect x="11" y="11" width="1" height="1" fill="rgba(54,28,22,1.000)"/>
<rect x="12" y="11" width="1" height="1" fill="rgba(238,142,54,1.000)"/>
<rect x="13" y="11" width="1" height="1" fill="rgba(255,186,92,1.000)"/>
<rect x="14" y="11" width="1" height="1" fill="rgba(255,186,92,1.000)"/>
<rect x="15" y="11" width="1" height="1" fill="rgba(255,255,255,1.000)"/>
<rect x="16" y="11" width="1" height="1" fill="rgba(255,140,160,1.000)"/>
<rect x="17" y="11" width="1" height="1" fill="rgba(254,246,238,1.000)"/>
<rect x="1" y="12" width="1" height="1" fill="rgba(54,28,22,1.000)"/>
<rect x="2" y="12" width="1" height="1" fill="rgba(54,28,22,1.000)"/>
<rect x="3" y="12" width="1" height="1" fill="rgba(54,28,22,1.000)"/>
<rect x="4" y="12" width="1" height="1" fill="rgba(255,186,92,1.000)"/>
<rect x="5" y="12" width="1" height="1" fill="rgba(255,255,255,1.000)"/>
<rect x="6" y="12" width="1" height="1" fill="rgba(255,255,255,1.000)"/>
<rect x="7" y="12" width="1" height="1" fill="rgba(255,255,255,1.000)"/>
<rect x="8" y="12" width="1" height="1" fill="rgba(255,255,255,1.000)"/>
<rect x="9" y="12" width="1" height="1" fill="rgba(255,255,255,1.000)"/>
<rect x="10" y="12" width="1" height="1" fill="rgba(255,255,255,1.000)"/>
<rect x="11" y="12" width="1" height="1" fill="rgba(254,246,238,1.000)"/>
<rect x="12" y="12" width="1" height="1" fill="rgba(254,246,238,1.000)"/>
<rect x="13" y="12" width="1" height="1" fill="rgba(218,202,190,1.000)"/>
<rect x="14" y="12" width="1" height="1" fill="rgba(164,76,24,1.000)"/>
<rect x="15" y="12" width="1" height="1" fill="rgba(164,76,24,1.000)"/>
<rect x="16" y="12" width="1" height="1" fill="rgba(184,168,156,1.000)"/>
<rect x="5" y="13" width="1" height="1" fill="rgba(54,28,22,1.000)"/>
<rect x="6" y="13" width="1" height="1" fill="rgba(164,76,24,1.000)"/>
<rect x="7" y="13" width="1" height="1" fill="rgba(54,28,22,1.000)"/>
<rect x="8" y="13" width="1" height="1" fill="rgba(218,202,190,1.000)"/>
<rect x="9" y="13" width="1" height="1" fill="rgba(184,168,156,1.000)"/>
<rect x="10" y="13" width="1" height="1" fill="rgba(218,202,190,1.000)"/>
<rect x="11" y="13" width="1" height="1" fill="rgba(54,28,22,1.000)"/>
<rect x="12" y="13" width="1" height="1" fill="rgba(164,76,24,1.000)"/>
<rect x="13" y="13" width="1" height="1" fill="rgba(54,28,22,1.000)"/>
</svg>
