<svg xmlns="http://www.w3.org/2000/svg" viewBox="0 0 16 16" shape-rendering="crispEdges">
<rect x="5" y="0" width="1" height="1" fill="rgba(122,107,63,1.000)"/>
<rect x="6" y="0" width="1" height="1" fill="rgba(119,104,62,1.000)"/>
<rect x="7" y="0" width="1" height="1" fill="rgba(104,91,54,1.000)"/>
<rect x="3" y="1" width="1" height="1" fill="rgba(106,93,55,1.000)"/>
<rect x="4" y="1" width="1" height="1" fill="rgba(133,117,69,1.000)"/>
<rect x="5" y="1" width="1" height="1" fill="rgba(148,130,77,1.000)"/>
<rect x="6" y="1" width="1" height="1" fill="rgba(150,132,77,1.000)"/>
<rect x="7" y="1" width="1" height="1" fill="rgba(139,123,72,1.000)"/>
<rect x="8" y="1" width="1" height="1" fill="rgba(124,109,64,1.000)"/>
<rect x="9" y="1" width="1" height="1" fill="rgba(121,106,62,1.000)"/>
<rect x="10" y="1" width="1" height="1" fill="rgba(123,108,63,1.000)"/>
<rect x="11" y="1" width="1" height="1" fill="rgba(119,105,62,1.000)"/>
<rect x="3" y="2" width="1" height="1" fill="rgba(123,108,64,1.000)"/>
<rect x="4" y="2" width="1" height="1" fill="rgba(154,135,80,1.000)"/>
<rect x="5" y="2" width="1" height="1" fill="rgba(204,179,106,1.000)"/>
<rect x="6" y="2" width="1" height="1" fill="rgba(179,157,93,1.000)"/>
<rect x="7" y="2" width="1" height="1" fill="rgba(175,154,91,1.000)"/>
<rect x="8" y="2" width="1" height="1" fill="rgba(204,179,106,1.000)"/>
<rect x="9" y="2" width="1" height="1" fill="rgba(102,102,96,1.000)"/>
<rect x="10" y="2" width="1" height="1" fill="rgba(156,137,81,1.000)"/>
<rect x="11" y="2" width="1" height="1" fill="rgba(145,128,75,1.000)"/>
<rect x="12" y="2" width="1" height="1" fill="rgba(127,111,66,1.000)"/>
<rect x="2" y="3" width="1" height="1" fill="rgba(112,98,58,1.000)"/>
<rect x="3" y="3" width="1" height="1" fill="rgba(143,126,74,1.000)"/>
<rect x="4" y="3" width="1" height="1" fill="rgba(176,154,91,1.000)"/>
<rect x="5" y="3" width="1" height="1" fill="rgba(197,173,102,1.000)"/>
<rect x="6" y="3" width="1" height="1" fill="rgba(207,182,107,1.000)"/>
<rect x="8" y="3" width="1" height="1" fill="rgba(207,181,107,1.000)"/>
<rect x="9" y="3" width="1" height="1" fill="rgba(179,179,168,1.000)"/>
<rect x="10" y="3" width="1" height="1" fill="rgba(183,161,95,1.000)"/>
<rect x="11" y="3" width="1" height="1" fill="rgba(165,145,85,1.000)"/>
<rect x="12" y="3" width="1" height="1" fill="rgba(139,122,72,1.000)"/>
<rect x="13" y="3" width="1" height="1" fill="rgba(105,93,55,1.000)"/>
<rect x="1" y="4" width="1" height="1" fill="rgba(121,107,63,1.000)"/>
<rect x="2" y="4" width="1" height="1" fill="rgba(144,127,75,1.000)"/>
<rect x="3" y="4" width="1" height="1" fill="rgba(64,58,55,1.000)"/>
<rect x="4" y="4" width="1" height="1" fill="rgba(41,39,47,1.000)"/>
<rect x="5" y="4" width="1" height="1" fill="rgba(37,35,45,1.000)"/>
<rect x="6" y="4" width="1" height="1" fill="rgba(38,35,43,1.000)"/>
<rect x="7" y="4" width="1" height="1" fill="rgba(102,102,96,1.000)"/>
<rect x="8" y="4" width="1" height="1" fill="rgba(179,179,168,1.000)"/>
<rect x="9" y="4" width="1" height="1" fill="rgba(255,255,240,1.000)"/>
<rect x="10" y="4" width="1" height="1" fill="rgba(179,179,168,1.000)"/>
<rect x="11" y="4" width="1" height="1" fill="rgba(102,102,96,1.000)"/>
<rect x="12" y="4" width="1" height="1" fill="rgba(147,129,76,1.000)"/>
<rect x="13" y="4" width="1" height="1" fill="rgba(107,94,55,1.000)"/>
<rect x="0" y="5" width="1" height="1" fill="rgba(120,106,62,1.000)"/>
<rect x="1" y="5" width="1" height="1" fill="rgba(145,127,75,1.000)"/>
<rect x="2" y="5" width="1" height="1" fill="rgba(64,58,55,1.000)"/>
<rect x="3" y="5" width="1" height="1" fill="rgba(38,35,47,1.000)"/>
<rect x="4" y="5" width="1" height="1" fill="rgba(35,33,46,1.000)"/>
<rect x="5" y="5" width="1" height="1" fill="rgba(32,31,44,1.000)"/>
<rect x="6" y="5" width="1" height="1" fill="rgba(31,30,41,1.000)"/>
<rect x="7" y="5" width="1" height="1" fill="rgba(31,28,39,1.000)"/>
<rect x="8" y="5" width="1" height="1" fill="rgba(55,50,44,1.000)"/>
<rect x="9" y="5" width="1" height="1" fill="rgba(179,179,168,1.000)"/>
<rect x="10" y="5" width="1" height="1" fill="rgba(169,121,32,1.000)"/>
<rect x="11" y="5" width="1" height="1" fill="rgba(204,179,106,1.000)"/>
<rect x="12" y="5" width="1" height="1" fill="rgba(154,135,80,1.000)"/>
<rect x="13" y="5" width="1" height="1" fill="rgba(114,100,59,1.000)"/>
<rect x="0" y="6" width="1" height="1" fill="rgba(127,112,66,1.000)"/>
<rect x="1" y="6" width="1" height="1" fill="rgba(154,135,80,1.000)"/>
<rect x="2" y="6" width="1" height="1" fill="rgba(41,39,47,1.000)"/>
<rect x="3" y="6" width="1" height="1" fill="rgba(35,33,46,1.000)"/>
<rect x="4" y="6" width="1" height="1" fill="rgba(33,31,45,1.000)"/>
<rect x="5" y="6" width="1" height="1" fill="rgba(32,30,43,1.000)"/>
<rect x="6" y="6" width="1" height="1" fill="rgba(30,28,41,1.000)"/>
<rect x="7" y="6" width="1" height="1" fill="rgba(28,26,36,1.000)"/>
<rect x="8" y="6" width="1" height="1" fill="rgba(31,29,34,1.000)"/>
<rect x="9" y="6" width="1" height="1" fill="rgba(102,102,96,1.000)"/>
<rect x="10" y="6" width="1" height="1" fill="rgba(185,145,43,1.000)"/>
<rect x="11" y="6" width="1" height="1" fill="rgba(207,181,107,1.000)"/>
<rect x="12" y="6" width="1" height="1" fill="rgba(169,148,87,1.000)"/>
<rect x="13" y="6" width="1" height="1" fill="rgba(133,117,69,1.000)"/>
<rect x="14" y="6" width="1" height="1" fill="rgba(100,87,52,1.000)"/>
<rect x="0" y="7" width="1" height="1" fill="rgba(120,105,62,1.000)"/>
<rect x="1" y="7" width="1" height="1" fill="rgba(150,132,78,1.000)"/>
<rect x="2" y="7" width="1" height="1" fill="rgba(37,35,45,1.000)"/>
<rect x="3" y="7" width="1" height="1" fill="rgba(32,31,44,1.000)"/>
<rect x="4" y="7" width="1" height="1" fill="rgba(32,30,43,1.000)"/>
<rect x="5" y="7" width="1" height="1" fill="rgba(31,29,42,1.000)"/>
<rect x="6" y="7" width="1" height="1" fill="rgba(29,27,39,1.000)"/>
<rect x="7" y="7" width="1" height="1" fill="rgba(26,24,35,1.000)"/>
<rect x="8" y="7" width="1" height="1" fill="rgba(27,25,32,1.000)"/>
<rect x="9" y="7" width="1" height="1" fill="rgba(195,188,150,1.000)"/>
<rect x="10" y="7" width="1" height="1" fill="rgba(196,157,46,1.000)"/>
<rect x="12" y="7" width="1" height="1" fill="rgba(180,158,93,1.000)"/>
<rect x="13" y="7" width="1" height="1" fill="rgba(150,132,78,1.000)"/>
<rect x="14" y="7" width="1" height="1" fill="rgba(120,105,62,1.000)"/>
<rect x="0" y="8" width="1" height="1" fill="rgba(100,87,52,1.000)"/>
<rect x="1" y="8" width="1" height="1" fill="rgba(133,117,69,1.000)"/>
<rect x="2" y="8" width="1" height="1" fill="rgba(38,35,43,1.000)"/>
<rect x="3" y="8" width="1" height="1" fill="rgba(31,30,41,1.000)"/>
<rect x="4" y="8" width="1" height="1" fill="rgba(30,28,41,1.000)"/>
<rect x="5" y="8" width="1" height="1" fill="rgba(29,27,39,1.000)"/>
<rect x="6" y="8" width="1" height="1" fill="rgba(27,25,36,1.000)"/>
<rect x="7" y="8" width="1" height="1" fill="rgba(26,25,34,1.000)"/>
<rect x="8" y="8" width="1" height="1" fill="rgba(38,34,37,1.000)"/>
<rect x="9" y="8" width="1" height="1" fill="rgba(229,185,56,1.000)"/>
<rect x="10" y="8" width="1" height="1" fill="rgba(186,146,43,1.000)"/>
<rect x="11" y="8" width="1" height="1" fill="rgba(204,179,106,1.000)"/>
<rect x="12" y="8" width="1" height="1" fill="rgba(181,159,94,1.000)"/>
<rect x="13" y="8" width="1" height="1" fill="rgba(154,135,80,1.000)"/>
<rect x="14" y="8" width="1" height="1" fill="rgba(127,112,66,1.000)"/>
<rect x="1" y="9" width="1" height="1" fill="rgba(114,100,59,1.000)"/>
<rect x="2" y="9" width="1" height="1" fill="rgba(60,54,49,1.000)"/>
<rect x="3" y="9" width="1" height="1" fill="rgba(31,28,39,1.000)"/>
<rect x="4" y="9" width="1" height="1" fill="rgba(29,27,37,1.000)"/>
<rect x="5" y="9" width="1" height="1" fill="rgba(29,27,37,1.000)"/>
<rect x="6" y="9" width="1" height="1" fill="rgba(31,29,37,1.000)"/>
<rect x="7" y="9" width="1" height="1" fill="rgba(36,33,38,1.000)"/>
<rect x="8" y="9" width="1" height="1" fill="rgba(72,64,54,1.000)"/>
<rect x="9" y="9" width="1" height="1" fill="rgba(198,159,50,1.000)"/>
<rect x="10" y="9" width="1" height="1" fill="rgba(173,125,38,1.000)"/>
<rect x="11" y="9" width="1" height="1" fill="rgba(195,171,101,1.000)"/>
<rect x="12" y="9" width="1" height="1" fill="rgba(169,149,88,1.000)"/>
<rect x="13" y="9" width="1" height="1" fill="rgba(145,127,75,1.000)"/>
<rect x="14" y="9" width="1" height="1" fill="rgba(120,106,62,1.000)"/>
<rect x="1" y="10" width="1" height="1" fill="rgba(107,94,55,1.000)"/>
<rect x="2" y="10" width="1" height="1" fill="rgba(147,129,76,1.000)"/>
<rect x="3" y="10" width="1" height="1" fill="rgba(66,60,53,1.000)"/>
<rect x="4" y="10" width="1" height="1" fill="rgba(44,40,43,1.000)"/>
<rect x="5" y="10" width="1" height="1" fill="rgba(42,38,42,1.000)"/>
<rect x="6" y="10" width="1" height="1" fill="rgba(48,42,44,1.000)"/>
<rect x="7" y="10" width="1" height="1" fill="rgba(77,68,58,1.000)"/>
<rect x="8" y="10" width="1" height="1" fill="rgba(191,152,52,1.000)"/>
<rect x="9" y="10" width="1" height="1" fill="rgba(178,130,42,1.000)"/>
<rect x="10" y="10" width="1" height="1" fill="rgba(202,177,104,1.000)"/>
<rect x="11" y="10" width="1" height="1" fill="rgba(171,150,88,1.000)"/>
<rect x="12" y="10" width="1" height="1" fill="rgba(144,127,75,1.000)"/>
<rect x="13" y="10" width="1" height="1" fill="rgba(121,107,63,1.000)"/>
<rect x="1" y="11" width="1" height="1" fill="rgba(105,93,55,1.000)"/>
<rect x="2" y="11" width="1" height="1" fill="rgba(139,122,72,1.000)"/>
<rect x="3" y="11" width="1" height="1" fill="rgba(165,145,85,1.000)"/>
<rect x="4" y="11" width="1" height="1" fill="rgba(183,161,95,1.000)"/>
<rect x="5" y="11" width="1" height="1" fill="rgba(204,179,106,1.000)"/>
<rect x="6" y="11" width="1" height="1" fill="rgba(207,181,107,1.000)"/>
<rect x="8" y="11" width="1" height="1" fill="rgba(204,179,106,1.000)"/>
<rect x="9" y="11" width="1" height="1" fill="rgba(197,173,102,1.000)"/>
<rect x="10" y="11" width="1" height="1" fill="rgba(176,154,91,1.000)"/>
<rect x="11" y="11" width="1" height="1" fill="rgba(143,126,74,1.000)"/>
<rect x="12" y="11" width="1" height="1" fill="rgba(112,98,58,1.000)"/>
<rect x="2" y="12" width="1" height="1" fill="rgba(127,111,66,1.000)"/>
<rect x="3" y="12" width="1" height="1" fill="rgba(145,128,75,1.000)"/>
<rect x="4" y="12" width="1" height="1" fill="rgba(156,137,81,1.000)"/>
<rect x="5" y="12" width="1" height="1" fill="rgba(161,141,83,1.000)"/>
<rect x="6" y="12" width="1" height="1" fill="rgba(165,145,86,1.000)"/>
<rect x="7" y="12" width="1" height="1" fill="rgba(175,154,91,1.000)"/>
<rect x="8" y="12" width="1" height="1" fill="rgba(179,157,93,1.000)"/>
<rect x="9" y="12" width="1" height="1" fill="rgba(173,152,89,1.000)"/>
<rect x="10" y="12" width="1" height="1" fill="rgba(154,135,80,1.000)"/>
<rect x="11" y="12" width="1" height="1" fill="rgba(123,108,64,1.000)"/>
<rect x="3" y="13" width="1" height="1" fill="rgba(119,105,62,1.000)"/>
<rect x="4" y="13" width="1" height="1" fill="rgba(123,108,63,1.000)"/>
<rect x="5" y="13" width="1" height="1" fill="rgba(121,106,62,1.000)"/>
<rect x="6" y="13" width="1" height="1" fill="rgba(124,109,64,1.000)"/>
<rect x="7" y="13" width="1" height="1" fill="rgba(139,123,72,1.000)"/>
<rect x="8" y="13" width="1" height="1" fill="rgba(150,132,77,1.000)"/>
<rect x="9" y="13" width="1" height="1" fill="rgba(148,130,77,1.000)"/>
<rect x="10" y="13" width="1" height="1" fill="rgba(133,117,69,1.000)"/>
<rect x="11" y="13" width="1" height="1" fill="rgba(106,93,55,1.000)"/>
<rect x="7" y="14" width="1" height="1" fill="rgba(104,91,54,1.000)"/>
<rect x="8" y="14" width="1" height="1" fill="rgba(119,104,62,1.000)"/>
<rect x="9" y="14" width="1" height="1" fill="rgba(122,107,63,1.000)"/>
</svg>
