<svg xmlns="http://www.w3.org/2000/svg" viewBox="0 0 16 16" shape-rendering="crispEdges">
<rect x="3" y="0" width="1" height="1" fill="rgba(217,188,102,1.000)"/>
<rect x="4" y="0" width="1" height="1" fill="rgba(230,196,98,1.000)"/>
<rect x="9" y="0" width="1" height="1" fill="rgba(217,188,102,1.000)"/>
<rect x="4" y="1" width="1" height="1" fill="rgba(242,204,92,1.000)"/>
<rect x="5" y="1" width="1" height="1" fill="rgba(124,109,64,1.000)"/>
<rect x="6" y="1" width="1" height="1" fill="rgba(126,111,65,1.000)"/>
<rect x="7" y="1" width="1" height="1" fill="rgba(116,102,60,1.000)"/>
<rect x="8" y="1" width="1" height="1" fill="rgba(255,212,85,1.000)"/>
<rect x="9" y="1" width="1" height="1" fill="rgba(242,204,92,1.000)"/>
<rect x="10" y="1" width="1" height="1" fill="rgba(100,88,52,1.000)"/>
<rect x="3" y="2" width="1" height="1" fill="rgba(99,87,51,1.000)"/>
<rect x="4" y="2" width="1" height="1" fill="rgba(255,211,83,1.000)"/>
<rect x="5" y="2" width="1" height="1" fill="rgba(255,211,81,1.000)"/>
<rect x="6" y="2" width="1" height="1" fill="rgba(152,133,79,1.000)"/>
<rect x="7" y="2" width="1" height="1" fill="rgba(149,131,77,1.000)"/>
<rect x="8" y="2" width="1" height="1" fill="rgba(255,211,83,1.000)"/>
<rect x="9" y="2" width="1" height="1" fill="rgba(135,119,70,1.000)"/>
<rect x="10" y="2" width="1" height="1" fill="rgba(131,115,68,1.000)"/>
<rect x="11" y="2" width="1" height="1" fill="rgba(122,107,63,1.000)"/>
<rect x="3" y="3" width="1" height="1" fill="rgba(118,104,61,1.000)"/>
<rect x="4" y="3" width="1" height="1" fill="rgba(149,131,77,1.000)"/>
<rect x="5" y="3" width="1" height="1" fill="rgba(167,147,87,1.000)"/>
<rect x="7" y="3" width="1" height="1" fill="rgba(202,136,33,1.000)"/>
<rect x="9" y="3" width="1" height="1" fill="rgba(167,147,86,1.000)"/>
<rect x="10" y="3" width="1" height="1" fill="rgba(155,136,80,1.000)"/>
<rect x="11" y="3" width="1" height="1" fill="rgba(139,122,72,1.000)"/>
<rect x="12" y="3" width="1" height="1" fill="rgba(117,103,61,1.000)"/>
<rect x="13" y="3" width="1" height="1" fill="rgba(217,188,102,1.000)"/>
<rect x="14" y="3" width="1" height="1" fill="rgba(204,179,106,1.000)"/>
<rect x="0" y="4" width="1" height="1" fill="rgba(217,188,102,1.000)"/>
<rect x="1" y="4" width="1" height="1" fill="rgba(242,204,92,1.000)"/>
<rect x="2" y="4" width="1" height="1" fill="rgba(120,106,62,1.000)"/>
<rect x="3" y="4" width="1" height="1" fill="rgba(145,128,75,1.000)"/>
<rect x="5" y="4" width="1" height="1" fill="rgba(211,164,48,1.000)"/>
<rect x="6" y="4" width="1" height="1" fill="rgba(218,174,52,1.000)"/>
<rect x="7" y="4" width="1" height="1" fill="rgba(227,182,54,1.000)"/>
<rect x="8" y="4" width="1" height="1" fill="rgba(216,173,51,1.000)"/>
<rect x="9" y="4" width="1" height="1" fill="rgba(211,164,48,1.000)"/>
<rect x="11" y="4" width="1" height="1" fill="rgba(255,211,83,1.000)"/>
<rect x="12" y="4" width="1" height="1" fill="rgba(242,204,92,1.000)"/>
<rect x="13" y="4" width="1" height="1" fill="rgba(230,196,98,1.000)"/>
<rect x="1" y="5" width="1" height="1" fill="rgba(255,212,85,1.000)"/>
<rect x="2" y="5" width="1" height="1" fill="rgba(255,211,83,1.000)"/>
<rect x="3" y="5" width="1" height="1" fill="rgba(167,147,86,1.000)"/>
<rect x="4" y="5" width="1" height="1" fill="rgba(209,162,47,1.000)"/>
<rect x="5" y="5" width="1" height="1" fill="rgba(222,179,54,1.000)"/>
<rect x="6" y="5" width="1" height="1" fill="rgba(240,194,58,1.000)"/>
<rect x="7" y="5" width="1" height="1" fill="rgba(209,204,173,1.000)"/>
<rect x="8" y="5" width="1" height="1" fill="rgba(241,195,59,1.000)"/>
<rect x="9" y="5" width="1" height="1" fill="rgba(222,179,54,1.000)"/>
<rect x="10" y="5" width="1" height="1" fill="rgba(207,161,47,1.000)"/>
<rect x="11" y="5" width="1" height="1" fill="rgba(255,211,81,1.000)"/>
<rect x="12" y="5" width="1" height="1" fill="rgba(129,113,67,1.000)"/>
<rect x="1" y="6" width="1" height="1" fill="rgba(130,114,67,1.000)"/>
<rect x="2" y="6" width="1" height="1" fill="rgba(153,134,79,1.000)"/>
<rect x="4" y="6" width="1" height="1" fill="rgba(218,175,52,1.000)"/>
<rect x="5" y="6" width="1" height="1" fill="rgba(243,196,59,1.000)"/>
<rect x="6" y="6" width="1" height="1" fill="rgba(236,229,195,1.000)"/>
<rect x="7" y="6" width="1" height="1" fill="rgba(246,239,204,1.000)"/>
<rect x="8" y="6" width="1" height="1" fill="rgba(236,229,195,1.000)"/>
<rect x="9" y="6" width="1" height="1" fill="rgba(243,196,59,1.000)"/>
<rect x="10" y="6" width="1" height="1" fill="rgba(217,173,51,1.000)"/>
<rect x="12" y="6" width="1" height="1" fill="rgba(143,125,74,1.000)"/>
<rect x="13" y="6" width="1" height="1" fill="rgba(109,95,56,1.000)"/>
<rect x="1" y="7" width="1" height="1" fill="rgba(125,110,65,1.000)"/>
<rect x="2" y="7" width="1" height="1" fill="rgba(153,134,79,1.000)"/>
<rect x="3" y="7" width="1" height="1" fill="rgba(202,136,33,1.000)"/>
<rect x="4" y="7" width="1" height="1" fill="rgba(224,179,53,1.000)"/>
<rect x="5" y="7" width="1" height="1" fill="rgba(209,204,173,1.000)"/>
<rect x="6" y="7" width="1" height="1" fill="rgba(246,239,204,1.000)"/>
<rect x="7" y="7" width="1" height="1" fill="rgba(255,248,211,1.000)"/>
<rect x="8" y="7" width="1" height="1" fill="rgba(246,239,204,1.000)"/>
<rect x="9" y="7" width="1" height="1" fill="rgba(209,204,173,1.000)"/>
<rect x="10" y="7" width="1" height="1" fill="rgba(226,180,54,1.000)"/>
<rect x="11" y="7" width="1" height="1" fill="rgba(202,136,33,1.000)"/>
<rect x="12" y="7" width="1" height="1" fill="rgba(153,134,79,1.000)"/>
<rect x="13" y="7" width="1" height="1" fill="rgba(125,110,65,1.000)"/>
<rect x="1" y="8" width="1" height="1" fill="rgba(109,95,56,1.000)"/>
<rect x="2" y="8" width="1" height="1" fill="rgba(255,211,81,1.000)"/>
<rect x="4" y="8" width="1" height="1" fill="rgba(216,173,51,1.000)"/>
<rect x="5" y="8" width="1" height="1" fill="rgba(244,197,59,1.000)"/>
<rect x="6" y="8" width="1" height="1" fill="rgba(236,229,195,1.000)"/>
<rect x="7" y="8" width="1" height="1" fill="rgba(246,239,204,1.000)"/>
<rect x="8" y="8" width="1" height="1" fill="rgba(236,229,195,1.000)"/>
<rect x="9" y="8" width="1" height="1" fill="rgba(244,197,59,1.000)"/>
<rect x="10" y="8" width="1" height="1" fill="rgba(218,174,52,1.000)"/>
<rect x="11" y="8" width="1" height="1" fill="rgba(255,211,83,1.000)"/>
<rect x="12" y="8" width="1" height="1" fill="rgba(255,212,85,1.000)"/>
<rect x="13" y="8" width="1" height="1" fill="rgba(130,114,67,1.000)"/>
<rect x="0" y="9" width="1" height="1" fill="rgba(230,196,98,1.000)"/>
<rect x="1" y="9" width="1" height="1" fill="rgba(242,204,92,1.000)"/>
<rect x="2" y="9" width="1" height="1" fill="rgba(255,211,83,1.000)"/>
<rect x="3" y="9" width="1" height="1" fill="rgba(166,146,86,1.000)"/>
<rect x="4" y="9" width="1" height="1" fill="rgba(210,164,50,1.000)"/>
<rect x="5" y="9" width="1" height="1" fill="rgba(222,179,55,1.000)"/>
<rect x="6" y="9" width="1" height="1" fill="rgba(240,194,58,1.000)"/>
<rect x="7" y="9" width="1" height="1" fill="rgba(213,206,175,1.000)"/>
<rect x="8" y="9" width="1" height="1" fill="rgba(241,195,59,1.000)"/>
<rect x="9" y="9" width="1" height="1" fill="rgba(222,179,55,1.000)"/>
<rect x="10" y="9" width="1" height="1" fill="rgba(209,163,50,1.000)"/>
<rect x="11" y="9" width="1" height="1" fill="rgba(167,147,86,1.000)"/>
<rect x="12" y="9" width="1" height="1" fill="rgba(242,204,92,1.000)"/>
<rect x="13" y="9" width="1" height="1" fill="rgba(217,188,102,1.000)"/>
<rect x="14" y="9" width="1" height="1" fill="rgba(204,179,106,1.000)"/>
<rect x="0" y="10" width="1" height="1" fill="rgba(217,188,102,1.000)"/>
<rect x="2" y="10" width="1" height="1" fill="rgba(123,108,64,1.000)"/>
<rect x="3" y="10" width="1" height="1" fill="rgba(153,134,79,1.000)"/>
<rect x="5" y="10" width="1" height="1" fill="rgba(213,168,56,1.000)"/>
<rect x="6" y="10" width="1" height="1" fill="rgba(219,176,58,1.000)"/>
<rect x="7" y="10" width="1" height="1" fill="rgba(231,186,61,1.000)"/>
<rect x="8" y="10" width="1" height="1" fill="rgba(220,178,59,1.000)"/>
<rect x="9" y="10" width="1" height="1" fill="rgba(213,168,56,1.000)"/>
<rect x="11" y="10" width="1" height="1" fill="rgba(145,128,75,1.000)"/>
<rect x="12" y="10" width="1" height="1" fill="rgba(120,106,62,1.000)"/>
<rect x="13" y="10" width="1" height="1" fill="rgba(100,88,52,1.000)"/>
<rect x="2" y="11" width="1" height="1" fill="rgba(117,103,61,1.000)"/>
<rect x="3" y="11" width="1" height="1" fill="rgba(139,122,72,1.000)"/>
<rect x="4" y="11" width="1" height="1" fill="rgba(155,136,80,1.000)"/>
<rect x="5" y="11" width="1" height="1" fill="rgba(255,211,83,1.000)"/>
<rect x="7" y="11" width="1" height="1" fill="rgba(208,143,44,1.000)"/>
<rect x="8" y="11" width="1" height="1" fill="rgba(255,211,81,1.000)"/>
<rect x="9" y="11" width="1" height="1" fill="rgba(255,211,83,1.000)"/>
<rect x="10" y="11" width="1" height="1" fill="rgba(149,131,77,1.000)"/>
<rect x="11" y="11" width="1" height="1" fill="rgba(118,104,61,1.000)"/>
<rect x="3" y="12" width="1" height="1" fill="rgba(122,107,63,1.000)"/>
<rect x="4" y="12" width="1" height="1" fill="rgba(242,204,92,1.000)"/>
<rect x="5" y="12" width="1" height="1" fill="rgba(255,212,85,1.000)"/>
<rect x="6" y="12" width="1" height="1" fill="rgba(140,123,72,1.000)"/>
<rect x="7" y="12" width="1" height="1" fill="rgba(149,131,77,1.000)"/>
<rect x="8" y="12" width="1" height="1" fill="rgba(152,133,79,1.000)"/>
<rect x="9" y="12" width="1" height="1" fill="rgba(242,204,92,1.000)"/>
<rect x="10" y="12" width="1" height="1" fill="rgba(129,113,67,1.000)"/>
<rect x="11" y="12" width="1" height="1" fill="rgba(99,87,51,1.000)"/>
<rect x="4" y="13" width="1" height="1" fill="rgba(217,188,102,1.000)"/>
<rect x="6" y="13" width="1" height="1" fill="rgba(100,88,52,1.000)"/>
<rect x="7" y="13" width="1" height="1" fill="rgba(116,102,60,1.000)"/>
<rect x="8" y="13" width="1" height="1" fill="rgba(126,111,65,1.000)"/>
<rect x="9" y="13" width="1" height="1" fill="rgba(230,196,98,1.000)"/>
<rect x="10" y="13" width="1" height="1" fill="rgba(217,188,102,1.000)"/>
<rect x="4" y="14" width="1" height="1" fill="rgba(204,179,106,1.000)"/>
<rect x="10" y="14" width="1" height="1" fill="rgba(204,179,106,1.000)"/>
</svg>
