<svg xmlns="http://www.w3.org/2000/svg" viewBox="0 0 16 16" shape-rendering="crispEdges">
<rect x="7" y="0" width="1" height="1" fill="rgba(204,179,106,1.000)"/>
<rect x="7" y="1" width="1" height="1" fill="rgba(223,193,101,1.000)"/>
<rect x="2" y="2" width="1" height="1" fill="rgba(204,179,106,1.000)"/>
<rect x="6" y="2" width="1" height="1" fill="rgba(105,92,54,1.000)"/>
<rect x="7" y="2" width="1" height="1" fill="rgba(255,212,84,1.000)"/>
<rect x="11" y="2" width="1" height="1" fill="rgba(204,179,106,1.000)"/>
<rect x="3" y="3" width="1" height="1" fill="rgba(242,204,92,1.000)"/>
<rect x="5" y="3" width="1" height="1" fill="rgba(112,99,58,1.000)"/>
<rect x="6" y="3" width="1" height="1" fill="rgba(119,105,62,1.000)"/>
<rect x="7" y="3" width="1" height="1" fill="rgba(120,106,62,1.000)"/>
<rect x="8" y="3" width="1" height="1" fill="rgba(115,101,59,1.000)"/>
<rect x="9" y="3" width="1" height="1" fill="rgba(109,95,56,1.000)"/>
<rect x="10" y="3" width="1" height="1" fill="rgba(242,204,92,1.000)"/>
<rect x="4" y="4" width="1" height="1" fill="rgba(255,211,81,1.000)"/>
<rect x="6" y="4" width="1" height="1" fill="rgba(176,136,39,1.000)"/>
<rect x="7" y="4" width="1" height="1" fill="rgba(189,150,44,1.000)"/>
<rect x="8" y="4" width="1" height="1" fill="rgba(174,135,39,1.000)"/>
<rect x="9" y="4" width="1" height="1" fill="rgba(255,211,81,1.000)"/>
<rect x="10" y="4" width="1" height="1" fill="rgba(117,103,61,1.000)"/>
<rect x="11" y="4" width="1" height="1" fill="rgba(105,92,54,1.000)"/>
<rect x="3" y="5" width="1" height="1" fill="rgba(112,99,58,1.000)"/>
<rect x="5" y="5" width="1" height="1" fill="rgba(190,151,45,1.000)"/>
<rect x="6" y="5" width="1" height="1" fill="rgba(221,179,54,1.000)"/>
<rect x="7" y="5" width="1" height="1" fill="rgba(224,181,54,1.000)"/>
<rect x="8" y="5" width="1" height="1" fill="rgba(223,180,54,1.000)"/>
<rect x="9" y="5" width="1" height="1" fill="rgba(190,151,45,1.000)"/>
<rect x="11" y="5" width="1" height="1" fill="rgba(109,95,56,1.000)"/>
<rect x="0" y="6" width="1" height="1" fill="rgba(204,179,106,1.000)"/>
<rect x="1" y="6" width="1" height="1" fill="rgba(223,193,101,1.000)"/>
<rect x="2" y="6" width="1" height="1" fill="rgba(255,212,84,1.000)"/>
<rect x="3" y="6" width="1" height="1" fill="rgba(119,105,62,1.000)"/>
<rect x="4" y="6" width="1" height="1" fill="rgba(177,137,39,1.000)"/>
<rect x="5" y="6" width="1" height="1" fill="rgba(224,181,55,1.000)"/>
<rect x="6" y="6" width="1" height="1" fill="rgba(229,220,176,1.000)"/>
<rect x="7" y="6" width="1" height="1" fill="rgba(243,234,187,1.000)"/>
<rect x="8" y="6" width="1" height="1" fill="rgba(229,220,176,1.000)"/>
<rect x="9" y="6" width="1" height="1" fill="rgba(224,181,55,1.000)"/>
<rect x="10" y="6" width="1" height="1" fill="rgba(175,135,39,1.000)"/>
<rect x="11" y="6" width="1" height="1" fill="rgba(115,101,59,1.000)"/>
<rect x="2" y="7" width="1" height="1" fill="rgba(100,88,52,1.000)"/>
<rect x="3" y="7" width="1" height="1" fill="rgba(120,106,62,1.000)"/>
<rect x="4" y="7" width="1" height="1" fill="rgba(187,147,43,1.000)"/>
<rect x="5" y="7" width="1" height="1" fill="rgba(223,180,54,1.000)"/>
<rect x="6" y="7" width="1" height="1" fill="rgba(243,234,187,1.000)"/>
<rect x="7" y="7" width="1" height="1" fill="rgba(255,246,196,1.000)"/>
<rect x="8" y="7" width="1" height="1" fill="rgba(243,234,187,1.000)"/>
<rect x="9" y="7" width="1" height="1" fill="rgba(223,180,54,1.000)"/>
<rect x="10" y="7" width="1" height="1" fill="rgba(188,148,44,1.000)"/>
<rect x="11" y="7" width="1" height="1" fill="rgba(255,212,84,1.000)"/>
<rect x="12" y="7" width="1" height="1" fill="rgba(223,193,101,1.000)"/>
<rect x="13" y="7" width="1" height="1" fill="rgba(204,179,106,1.000)"/>
<rect x="3" y="8" width="1" height="1" fill="rgba(115,101,59,1.000)"/>
<rect x="4" y="8" width="1" height="1" fill="rgba(174,135,39,1.000)"/>
<rect x="5" y="8" width="1" height="1" fill="rgba(225,182,55,1.000)"/>
<rect x="6" y="8" width="1" height="1" fill="rgba(229,220,176,1.000)"/>
<rect x="7" y="8" width="1" height="1" fill="rgba(243,234,187,1.000)"/>
<rect x="8" y="8" width="1" height="1" fill="rgba(229,220,176,1.000)"/>
<rect x="9" y="8" width="1" height="1" fill="rgba(225,182,55,1.000)"/>
<rect x="10" y="8" width="1" height="1" fill="rgba(176,136,39,1.000)"/>
<rect x="11" y="8" width="1" height="1" fill="rgba(119,105,62,1.000)"/>
<rect x="12" y="8" width="1" height="1" fill="rgba(105,92,54,1.000)"/>
<rect x="3" y="9" width="1" height="1" fill="rgba(109,95,56,1.000)"/>
<rect x="4" y="9" width="1" height="1" fill="rgba(255,211,81,1.000)"/>
<rect x="5" y="9" width="1" height="1" fill="rgba(192,153,49,1.000)"/>
<rect x="6" y="9" width="1" height="1" fill="rgba(221,180,56,1.000)"/>
<rect x="7" y="9" width="1" height="1" fill="rgba(224,181,55,1.000)"/>
<rect x="8" y="9" width="1" height="1" fill="rgba(223,181,56,1.000)"/>
<rect x="9" y="9" width="1" height="1" fill="rgba(192,153,49,1.000)"/>
<rect x="11" y="9" width="1" height="1" fill="rgba(112,99,58,1.000)"/>
<rect x="3" y="10" width="1" height="1" fill="rgba(242,204,92,1.000)"/>
<rect x="4" y="10" width="1" height="1" fill="rgba(117,103,61,1.000)"/>
<rect x="6" y="10" width="1" height="1" fill="rgba(181,142,49,1.000)"/>
<rect x="7" y="10" width="1" height="1" fill="rgba(197,155,54,1.000)"/>
<rect x="8" y="10" width="1" height="1" fill="rgba(183,143,50,1.000)"/>
<rect x="10" y="10" width="1" height="1" fill="rgba(242,204,92,1.000)"/>
<rect x="2" y="11" width="1" height="1" fill="rgba(204,179,106,1.000)"/>
<rect x="4" y="11" width="1" height="1" fill="rgba(105,92,54,1.000)"/>
<rect x="5" y="11" width="1" height="1" fill="rgba(109,95,56,1.000)"/>
<rect x="6" y="11" width="1" height="1" fill="rgba(115,101,59,1.000)"/>
<rect x="7" y="11" width="1" height="1" fill="rgba(255,212,84,1.000)"/>
<rect x="8" y="11" width="1" height="1" fill="rgba(119,105,62,1.000)"/>
<rect x="9" y="11" width="1" height="1" fill="rgba(112,99,58,1.000)"/>
<rect x="11" y="11" width="1" height="1" fill="rgba(204,179,106,1.000)"/>
<rect x="6" y="12" width="1" height="1" fill="rgba(223,193,101,1.000)"/>
<rect x="7" y="12" width="1" height="1" fill="rgba(242,204,92,1.000)"/>
<rect x="8" y="12" width="1" height="1" fill="rgba(105,92,54,1.000)"/>
<rect x="6" y="13" width="1" height="1" fill="rgba(204,179,106,1.000)"/>
</svg>
