<svg xmlns="http://www.w3.org/2000/svg" viewBox="0 0 16 16" shape-rendering="crispEdges">
<rect x="5" y="1" width="1" height="1" fill="rgba(204,179,106,1.000)"/>
<rect x="6" y="2" width="1" height="1" fill="rgba(255,212,85,1.000)"/>
<rect x="9" y="2" width="1" height="1" fill="rgba(230,196,98,1.000)"/>
<rect x="10" y="2" width="1" height="1" fill="rgba(204,179,106,1.000)"/>
<rect x="2" y="3" width="1" height="1" fill="rgba(204,179,106,1.000)"/>
<rect x="5" y="3" width="1" height="1" fill="rgba(101,89,52,1.000)"/>
<rect x="6" y="3" width="1" height="1" fill="rgba(255,211,81,1.000)"/>
<rect x="7" y="3" width="1" height="1" fill="rgba(103,90,53,1.000)"/>
<rect x="8" y="3" width="1" height="1" fill="rgba(99,87,51,1.000)"/>
<rect x="9" y="3" width="1" height="1" fill="rgba(255,212,85,1.000)"/>
<rect x="2" y="4" width="1" height="1" fill="rgba(230,196,98,1.000)"/>
<rect x="3" y="4" width="1" height="1" fill="rgba(255,212,85,1.000)"/>
<rect x="6" y="4" width="1" height="1" fill="rgba(169,127,35,1.000)"/>
<rect x="7" y="4" width="1" height="1" fill="rgba(182,141,40,1.000)"/>
<rect x="8" y="4" width="1" height="1" fill="rgba(168,126,35,1.000)"/>
<rect x="10" y="4" width="1" height="1" fill="rgba(103,91,53,1.000)"/>
<rect x="3" y="5" width="1" height="1" fill="rgba(97,85,50,1.000)"/>
<rect x="5" y="5" width="1" height="1" fill="rgba(183,145,43,1.000)"/>
<rect x="6" y="5" width="1" height="1" fill="rgba(217,176,53,1.000)"/>
<rect x="7" y="5" width="1" height="1" fill="rgba(221,179,54,1.000)"/>
<rect x="8" y="5" width="1" height="1" fill="rgba(219,177,53,1.000)"/>
<rect x="9" y="5" width="1" height="1" fill="rgba(183,145,43,1.000)"/>
<rect x="12" y="5" width="1" height="1" fill="rgba(204,179,106,1.000)"/>
<rect x="3" y="6" width="1" height="1" fill="rgba(104,91,54,1.000)"/>
<rect x="4" y="6" width="1" height="1" fill="rgba(170,128,35,1.000)"/>
<rect x="5" y="6" width="1" height="1" fill="rgba(221,178,54,1.000)"/>
<rect x="6" y="6" width="1" height="1" fill="rgba(225,217,173,1.000)"/>
<rect x="7" y="6" width="1" height="1" fill="rgba(242,233,186,1.000)"/>
<rect x="8" y="6" width="1" height="1" fill="rgba(225,217,173,1.000)"/>
<rect x="9" y="6" width="1" height="1" fill="rgba(221,178,54,1.000)"/>
<rect x="10" y="6" width="1" height="1" fill="rgba(168,126,35,1.000)"/>
<rect x="11" y="6" width="1" height="1" fill="rgba(255,212,85,1.000)"/>
<rect x="2" y="7" width="1" height="1" fill="rgba(255,212,85,1.000)"/>
<rect x="3" y="7" width="1" height="1" fill="rgba(255,211,81,1.000)"/>
<rect x="4" y="7" width="1" height="1" fill="rgba(179,139,40,1.000)"/>
<rect x="5" y="7" width="1" height="1" fill="rgba(221,178,54,1.000)"/>
<rect x="6" y="7" width="1" height="1" fill="rgba(242,233,186,1.000)"/>
<rect x="7" y="7" width="1" height="1" fill="rgba(255,246,196,1.000)"/>
<rect x="8" y="7" width="1" height="1" fill="rgba(242,233,186,1.000)"/>
<rect x="9" y="7" width="1" height="1" fill="rgba(221,178,54,1.000)"/>
<rect x="10" y="7" width="1" height="1" fill="rgba(181,141,40,1.000)"/>
<rect x="11" y="7" width="1" height="1" fill="rgba(105,92,54,1.000)"/>
<rect x="1" y="8" width="1" height="1" fill="rgba(204,179,106,1.000)"/>
<rect x="3" y="8" width="1" height="1" fill="rgba(100,87,52,1.000)"/>
<rect x="4" y="8" width="1" height="1" fill="rgba(169,127,37,1.000)"/>
<rect x="5" y="8" width="1" height="1" fill="rgba(222,179,54,1.000)"/>
<rect x="6" y="8" width="1" height="1" fill="rgba(226,217,173,1.000)"/>
<rect x="7" y="8" width="1" height="1" fill="rgba(242,233,186,1.000)"/>
<rect x="8" y="8" width="1" height="1" fill="rgba(226,217,173,1.000)"/>
<rect x="9" y="8" width="1" height="1" fill="rgba(222,179,54,1.000)"/>
<rect x="10" y="8" width="1" height="1" fill="rgba(170,128,37,1.000)"/>
<rect x="11" y="8" width="1" height="1" fill="rgba(104,91,54,1.000)"/>
<rect x="5" y="9" width="1" height="1" fill="rgba(186,148,48,1.000)"/>
<rect x="6" y="9" width="1" height="1" fill="rgba(218,177,55,1.000)"/>
<rect x="7" y="9" width="1" height="1" fill="rgba(221,180,56,1.000)"/>
<rect x="8" y="9" width="1" height="1" fill="rgba(220,178,55,1.000)"/>
<rect x="9" y="9" width="1" height="1" fill="rgba(186,148,48,1.000)"/>
<rect x="10" y="9" width="1" height="1" fill="rgba(255,212,85,1.000)"/>
<rect x="11" y="9" width="1" height="1" fill="rgba(230,196,98,1.000)"/>
<rect x="4" y="10" width="1" height="1" fill="rgba(255,212,85,1.000)"/>
<rect x="6" y="10" width="1" height="1" fill="rgba(176,133,47,1.000)"/>
<rect x="7" y="10" width="1" height="1" fill="rgba(190,150,52,1.000)"/>
<rect x="8" y="10" width="1" height="1" fill="rgba(177,135,47,1.000)"/>
<rect x="11" y="10" width="1" height="1" fill="rgba(204,179,106,1.000)"/>
<rect x="3" y="11" width="1" height="1" fill="rgba(204,179,106,1.000)"/>
<rect x="4" y="11" width="1" height="1" fill="rgba(230,196,98,1.000)"/>
<rect x="5" y="11" width="1" height="1" fill="rgba(99,87,51,1.000)"/>
<rect x="6" y="11" width="1" height="1" fill="rgba(99,87,51,1.000)"/>
<rect x="7" y="11" width="1" height="1" fill="rgba(255,212,85,1.000)"/>
<rect x="8" y="11" width="1" height="1" fill="rgba(104,91,54,1.000)"/>
<rect x="9" y="11" width="1" height="1" fill="rgba(101,89,52,1.000)"/>
<rect x="8" y="12" width="1" height="1" fill="rgba(204,179,106,1.000)"/>
</svg>
